<svg width="103" height="41" viewBox="0 0 103 41" fill="none" xmlns="http://www.w3.org/2000/svg">
<path d="M11.6667 3.83334C8.92506 3.83334 6.66667 6.09172 6.66667 8.83334V32.1667C6.66667 34.9083 8.92506 37.1667 11.6667 37.1667H33.3333V33.8333H11.6667C10.725 33.8333 10 33.1084 10 32.1667C10 31.225 10.725 30.5 11.6667 30.5H33.3333V27.1667V3.83334H26.6667H16.6667H11.6667ZM11.6667 7.16667H16.6667V20.7051L19.2904 18.8659L21.6667 17.196L26.6667 20.7051V7.16667H30V27.1667H11.6667C11.0803 27.1667 10.5248 27.2899 10 27.4792V8.83334C10 7.89162 10.725 7.16667 11.6667 7.16667ZM20 7.16667H23.3333V14.2956L21.6667 13.127L20 14.2956V7.16667Z" fill="#3498DB"/>
<path d="M44.16 19.658C45.104 19.834 45.88 20.306 46.488 21.074C47.096 21.842 47.4 22.722 47.4 23.714C47.4 24.61 47.176 25.402 46.728 26.09C46.296 26.762 45.664 27.29 44.832 27.674C44 28.058 43.016 28.25 41.88 28.25H34.656V11.498H41.568C42.704 11.498 43.68 11.682 44.496 12.05C45.328 12.418 45.952 12.93 46.368 13.586C46.8 14.242 47.016 14.986 47.016 15.818C47.016 16.794 46.752 17.61 46.224 18.266C45.712 18.922 45.024 19.386 44.16 19.658ZM38.016 18.41H41.088C41.888 18.41 42.504 18.234 42.936 17.882C43.368 17.514 43.584 16.994 43.584 16.322C43.584 15.65 43.368 15.13 42.936 14.762C42.504 14.394 41.888 14.21 41.088 14.21H38.016V18.41ZM41.4 25.514C42.216 25.514 42.848 25.322 43.296 24.938C43.76 24.554 43.992 24.01 43.992 23.306C43.992 22.586 43.752 22.026 43.272 21.626C42.792 21.21 42.144 21.002 41.328 21.002H38.016V25.514H41.4ZM57.8539 28.418C56.2859 28.418 54.8459 28.05 53.5339 27.314C52.2219 26.578 51.1819 25.562 50.4139 24.266C49.6459 22.954 49.2619 21.474 49.2619 19.826C49.2619 18.194 49.6459 16.73 50.4139 15.434C51.1819 14.122 52.2219 13.098 53.5339 12.362C54.8459 11.626 56.2859 11.258 57.8539 11.258C59.4379 11.258 60.8779 11.626 62.1739 12.362C63.4859 13.098 64.5179 14.122 65.2699 15.434C66.0379 16.73 66.4219 18.194 66.4219 19.826C66.4219 21.474 66.0379 22.954 65.2699 24.266C64.5179 25.562 63.4859 26.578 62.1739 27.314C60.8619 28.05 59.4219 28.418 57.8539 28.418ZM57.8539 25.418C58.8619 25.418 59.7499 25.194 60.5179 24.746C61.2859 24.282 61.8859 23.626 62.3179 22.778C62.7499 21.93 62.9659 20.946 62.9659 19.826C62.9659 18.706 62.7499 17.73 62.3179 16.898C61.8859 16.05 61.2859 15.402 60.5179 14.954C59.7499 14.506 58.8619 14.282 57.8539 14.282C56.8459 14.282 55.9499 14.506 55.1659 14.954C54.3979 15.402 53.7979 16.05 53.3659 16.898C52.9339 17.73 52.7179 18.706 52.7179 19.826C52.7179 20.946 52.9339 21.93 53.3659 22.778C53.7979 23.626 54.3979 24.282 55.1659 24.746C55.9499 25.194 56.8459 25.418 57.8539 25.418ZM76.6976 28.418C75.1296 28.418 73.6896 28.05 72.3776 27.314C71.0656 26.578 70.0256 25.562 69.2576 24.266C68.4896 22.954 68.1056 21.474 68.1056 19.826C68.1056 18.194 68.4896 16.73 69.2576 15.434C70.0256 14.122 71.0656 13.098 72.3776 12.362C73.6896 11.626 75.1296 11.258 76.6976 11.258C78.2816 11.258 79.7216 11.626 81.0176 12.362C82.3296 13.098 83.3616 14.122 84.1136 15.434C84.8816 16.73 85.2656 18.194 85.2656 19.826C85.2656 21.474 84.8816 22.954 84.1136 24.266C83.3616 25.562 82.3296 26.578 81.0176 27.314C79.7056 28.05 78.2656 28.418 76.6976 28.418ZM76.6976 25.418C77.7056 25.418 78.5936 25.194 79.3616 24.746C80.1296 24.282 80.7296 23.626 81.1616 22.778C81.5936 21.93 81.8096 20.946 81.8096 19.826C81.8096 18.706 81.5936 17.73 81.1616 16.898C80.7296 16.05 80.1296 15.402 79.3616 14.954C78.5936 14.506 77.7056 14.282 76.6976 14.282C75.6896 14.282 74.7936 14.506 74.0096 14.954C73.2416 15.402 72.6416 16.05 72.2096 16.898C71.7776 17.73 71.5616 18.706 71.5616 19.826C71.5616 20.946 71.7776 21.93 72.2096 22.778C72.6416 23.626 73.2416 24.282 74.0096 24.746C74.7936 25.194 75.6896 25.418 76.6976 25.418ZM97.2214 28.25L91.1254 20.786V28.25H87.7654V11.498H91.1254V19.01L97.2214 11.498H101.277L94.3654 19.802L101.469 28.25H97.2214Z" fill="#333333"/>
</svg>
